<svg xmlns="http://www.w3.org/2000/svg" width="1280" height="720" viewBox="0 0 1280 720">
  <rect width="1280" height="720" fill="#F7F9FB"/>
  <g id="background-grid">
    <path d="M80 96 H1200 M80 176 H1200 M80 256 H1200 M80 336 H1200 M80 416 H1200 M80 496 H1200 M80 576 H1200" stroke="#D6E0EA" stroke-width="1" stroke-opacity="0.55"/>
    <path d="M160 72 V640 M320 72 V640 M480 72 V640 M640 72 V640 M800 72 V640 M960 72 V640 M1120 72 V640" stroke="#D6E0EA" stroke-width="1" stroke-opacity="0.42"/>
    <circle cx="1080" cy="160" r="86" fill="#2F80ED" fill-opacity="0.10"/>
    <circle cx="180" cy="560" r="120" fill="#00A6A6" fill-opacity="0.10"/>
  </g>
  <g id="cover-title">
    <rect x="80" y="118" width="1120" height="390" rx="18" fill="#FFFFFF" stroke="#D6E0EA"/>
    <rect x="80" y="118" width="10" height="390" fill="#2F80ED"/>
    <text x="130" y="205" font-family="Microsoft YaHei, Arial, sans-serif" font-size="24" font-weight="bold" fill="#00A6A6">Agentic BI Final Defense</text>
    <text x="130" y="292" font-family="Microsoft YaHei, Arial, sans-serif" font-size="66" font-weight="bold" fill="#17324D">多表电商运营分析</text>
    <text x="130" y="368" font-family="Microsoft YaHei, Arial, sans-serif" font-size="54" font-weight="bold" fill="#17324D">与决策智能系统</text>
    <text x="130" y="430" font-family="Microsoft YaHei, Arial, sans-serif" font-size="24" fill="#52677A">基于 Olist 巴西电商数据集 · MySQL 预聚合 · LangGraph 多 Agent · Streamlit</text>
  </g>
  <g id="cover-tags">
    <rect x="130" y="548" width="190" height="42" rx="21" fill="#17324D"/>
    <text x="225" y="576" text-anchor="middle" font-family="Microsoft YaHei, Arial, sans-serif" font-size="18" font-weight="bold" fill="#FFFFFF">Pre-Aggregation</text>
    <rect x="340" y="548" width="148" height="42" rx="21" fill="#2F80ED"/>
    <text x="414" y="576" text-anchor="middle" font-family="Microsoft YaHei, Arial, sans-serif" font-size="18" font-weight="bold" fill="#FFFFFF">LangGraph</text>
    <rect x="508" y="548" width="132" height="42" rx="21" fill="#00A6A6"/>
    <text x="574" y="576" text-anchor="middle" font-family="Microsoft YaHei, Arial, sans-serif" font-size="18" font-weight="bold" fill="#FFFFFF">NLP / BI</text>
    <rect x="660" y="548" width="122" height="42" rx="21" fill="#F2994A"/>
    <text x="721" y="576" text-anchor="middle" font-family="Microsoft YaHei, Arial, sans-serif" font-size="18" font-weight="bold" fill="#FFFFFF">Demo</text>
  </g>
  <g id="footer">
    <text x="80" y="684" font-family="Microsoft YaHei, Arial, sans-serif" font-size="13" fill="#94A3B8">Business Intelligence Case Analysis · 2026</text>
    <text x="1200" y="684" text-anchor="end" font-family="Microsoft YaHei, Arial, sans-serif" font-size="13" fill="#94A3B8">01 / 18</text>
  </g>
</svg>
